%TF.GenerationSoftware,KiCad,Pcbnew,(5.1.6)-1*%
%TF.CreationDate,2021-10-24T20:03:51+02:00*%
%TF.ProjectId,KiCAD_tutorial,4b694341-445f-4747-9574-6f7269616c2e,rev?*%
%TF.SameCoordinates,Original*%
%TF.FileFunction,Copper,L2,Bot*%
%TF.FilePolarity,Positive*%
%FSLAX46Y46*%
G04 Gerber Fmt 4.6, Leading zero omitted, Abs format (unit mm)*
G04 Created by KiCad (PCBNEW (5.1.6)-1) date 2021-10-24 20:03:51*
%MOMM*%
%LPD*%
G01*
G04 APERTURE LIST*
%TA.AperFunction,ComponentPad*%
%ADD10C,1.600000*%
%TD*%
%TA.AperFunction,ComponentPad*%
%ADD11O,1.600000X1.600000*%
%TD*%
%TA.AperFunction,ComponentPad*%
%ADD12R,2.170000X2.170000*%
%TD*%
%TA.AperFunction,ComponentPad*%
%ADD13C,2.500000*%
%TD*%
%TA.AperFunction,ComponentPad*%
%ADD14R,1.600000X1.600000*%
%TD*%
%TA.AperFunction,ComponentPad*%
%ADD15C,1.500000*%
%TD*%
%TA.AperFunction,ComponentPad*%
%ADD16R,1.500000X1.500000*%
%TD*%
%TA.AperFunction,ComponentPad*%
%ADD17C,2.100000*%
%TD*%
%TA.AperFunction,ComponentPad*%
%ADD18R,1.800000X1.800000*%
%TD*%
%TA.AperFunction,ComponentPad*%
%ADD19C,1.800000*%
%TD*%
%TA.AperFunction,ViaPad*%
%ADD20C,0.800000*%
%TD*%
%TA.AperFunction,Conductor*%
%ADD21C,0.500000*%
%TD*%
G04 APERTURE END LIST*
D10*
%TO.P,R2,1*%
%TO.N,Net-(R1-Pad2)*%
X113580000Y-105770000D03*
D11*
%TO.P,R2,2*%
%TO.N,Net-(C1-Pad1)*%
X113580000Y-113390000D03*
%TD*%
D12*
%TO.P,BT1,Neg*%
%TO.N,N/C*%
X88820000Y-125860000D03*
D13*
%TO.P,BT1,Pos*%
X88820000Y-105860000D03*
%TD*%
D10*
%TO.P,C1,1*%
%TO.N,Net-(C1-Pad1)*%
X106800000Y-120210000D03*
%TO.P,C1,2*%
%TO.N,GND*%
X101800000Y-120210000D03*
%TD*%
%TO.P,C2,1*%
%TO.N,GND*%
X104520000Y-124710000D03*
D14*
%TO.P,C2,2*%
%TO.N,Net-(C2-Pad2)*%
X104520000Y-127210000D03*
%TD*%
D15*
%TO.P,Q1,2*%
%TO.N,Net-(Q1-Pad2)*%
X123970000Y-115830000D03*
%TO.P,Q1,3*%
%TO.N,GND*%
X123970000Y-118430000D03*
D16*
%TO.P,Q1,1*%
%TO.N,Net-(Q1-Pad1)*%
X123970000Y-113230000D03*
%TD*%
D11*
%TO.P,R1,2*%
%TO.N,Net-(R1-Pad2)*%
X117090000Y-105780000D03*
D10*
%TO.P,R1,1*%
%TO.N,VDD*%
X117090000Y-113400000D03*
%TD*%
%TO.P,R3,1*%
%TO.N,Net-(C2-Pad2)*%
X117180000Y-120260000D03*
D11*
%TO.P,R3,2*%
%TO.N,Net-(R3-Pad2)*%
X109560000Y-120260000D03*
%TD*%
%TO.P,R4,2*%
%TO.N,Net-(C2-Pad2)*%
X117170000Y-123760000D03*
D10*
%TO.P,R4,1*%
%TO.N,GND*%
X109550000Y-123760000D03*
%TD*%
%TO.P,R5,1*%
%TO.N,Net-(Q1-Pad2)*%
X120790000Y-116460000D03*
D11*
%TO.P,R5,2*%
%TO.N,Net-(C2-Pad2)*%
X113170000Y-116460000D03*
%TD*%
D10*
%TO.P,R6,1*%
%TO.N,Net-(D1-Pad1)*%
X129060000Y-109900000D03*
D11*
%TO.P,R6,2*%
%TO.N,Net-(Q1-Pad1)*%
X121440000Y-109900000D03*
%TD*%
%TO.P,R7,2*%
%TO.N,Net-(Q1-Pad1)*%
X121430000Y-106320000D03*
D10*
%TO.P,R7,1*%
%TO.N,Net-(D2-Pad1)*%
X129050000Y-106320000D03*
%TD*%
D17*
%TO.P,SW1,1*%
%TO.N,Net-(SW1-Pad1)*%
X96460000Y-105880000D03*
%TO.P,SW1,2*%
%TO.N,Net-(BT1-Pad1)*%
X99000000Y-105880000D03*
%TO.P,SW1,3*%
%TO.N,VDD*%
X101540000Y-105880000D03*
%TD*%
D14*
%TO.P,U1,1*%
%TO.N,GND*%
X102700000Y-116930000D03*
D10*
%TO.P,U1,2*%
%TO.N,Net-(C1-Pad1)*%
X105240000Y-116930000D03*
%TO.P,U1,3*%
%TO.N,Net-(R3-Pad2)*%
X107780000Y-116930000D03*
%TO.P,U1,4*%
%TO.N,VDD*%
X110320000Y-116930000D03*
%TO.P,U1,5*%
%TO.N,Net-(U1-Pad5)*%
X110320000Y-109310000D03*
%TO.P,U1,6*%
%TO.N,Net-(C1-Pad1)*%
X107780000Y-109310000D03*
%TO.P,U1,7*%
%TO.N,Net-(R1-Pad2)*%
X105240000Y-109310000D03*
%TO.P,U1,8*%
%TO.N,VDD*%
X102700000Y-109310000D03*
%TD*%
D18*
%TO.P,D1,1*%
%TO.N,Net-(D1-Pad1)*%
X114880000Y-62140000D03*
D19*
%TO.P,D1,2*%
%TO.N,VDD*%
X114880000Y-59600000D03*
%TD*%
%TO.P,D2,2*%
%TO.N,VDD*%
X94820000Y-59640000D03*
D18*
%TO.P,D2,1*%
%TO.N,Net-(D2-Pad1)*%
X94820000Y-62180000D03*
%TD*%
D20*
%TO.N,VDD*%
X109090000Y-114860000D03*
X106100000Y-111870000D03*
%TD*%
D21*
%TO.N,VDD*%
X109090000Y-114860000D02*
X106100000Y-111870000D01*
X91880000Y-60070000D02*
X89770000Y-62180000D01*
X89770000Y-62180000D02*
X89770000Y-66270000D01*
X100500001Y-77000001D02*
X100500001Y-77110001D01*
X89770000Y-66270000D02*
X100500001Y-77000001D01*
X101540000Y-78150000D02*
X101540000Y-105880000D01*
X100500001Y-77110001D02*
X101540000Y-78150000D01*
X91880000Y-60070000D02*
X91920000Y-60070000D01*
X92350000Y-59640000D02*
X94820000Y-59640000D01*
X91920000Y-60070000D02*
X92350000Y-59640000D01*
X94860000Y-59600000D02*
X94820000Y-59640000D01*
X114880000Y-59600000D02*
X94860000Y-59600000D01*
%TO.N,Net-(D1-Pad1)*%
X114860000Y-62520000D02*
X114860000Y-69710000D01*
X114860000Y-69710000D02*
X106990000Y-77580000D01*
X106990000Y-77580000D02*
X106990000Y-98430000D01*
X106990000Y-98430000D02*
X109080000Y-100520000D01*
X109080000Y-100520000D02*
X127920000Y-100520000D01*
X127920000Y-100520000D02*
X131860000Y-104460000D01*
X131860000Y-104460000D02*
X131860000Y-109010000D01*
X130970000Y-109900000D02*
X129060000Y-109900000D01*
X131860000Y-109010000D02*
X130970000Y-109900000D01*
%TO.N,Net-(D2-Pad1)*%
X94790000Y-62610000D02*
X94790000Y-68470000D01*
X94790000Y-68470000D02*
X104210000Y-77890000D01*
X104210000Y-77890000D02*
X104210000Y-99980000D01*
X104210000Y-99980000D02*
X107450000Y-103220000D01*
X125950000Y-103220000D02*
X129050000Y-106320000D01*
X107450000Y-103220000D02*
X125950000Y-103220000D01*
%TD*%
M02*
