%TF.GenerationSoftware,KiCad,Pcbnew,(5.1.6)-1*%
%TF.CreationDate,2021-10-24T20:03:51+02:00*%
%TF.ProjectId,KiCAD_tutorial,4b694341-445f-4747-9574-6f7269616c2e,rev?*%
%TF.SameCoordinates,Original*%
%TF.FileFunction,Soldermask,Bot*%
%TF.FilePolarity,Negative*%
%FSLAX46Y46*%
G04 Gerber Fmt 4.6, Leading zero omitted, Abs format (unit mm)*
G04 Created by KiCad (PCBNEW (5.1.6)-1) date 2021-10-24 20:03:51*
%MOMM*%
%LPD*%
G01*
G04 APERTURE LIST*
%ADD10C,3.300000*%
%ADD11C,1.700000*%
%ADD12O,1.700000X1.700000*%
%ADD13R,2.270000X2.270000*%
%ADD14C,2.600000*%
%ADD15R,1.700000X1.700000*%
%ADD16C,1.600000*%
%ADD17R,1.600000X1.600000*%
%ADD18C,2.200000*%
%ADD19R,1.900000X1.900000*%
%ADD20C,1.900000*%
G04 APERTURE END LIST*
D10*
%TO.C, *%
X134400000Y-37580000D03*
%TD*%
%TO.C, *%
X75690000Y-37150000D03*
%TD*%
%TO.C, *%
X134560000Y-125820000D03*
%TD*%
%TO.C, *%
X75090000Y-126430000D03*
%TD*%
D11*
%TO.C,R2*%
X113580000Y-105770000D03*
D12*
X113580000Y-113390000D03*
%TD*%
D13*
%TO.C,BT1*%
X88820000Y-125860000D03*
D14*
X88820000Y-105860000D03*
%TD*%
D11*
%TO.C,C1*%
X106800000Y-120210000D03*
X101800000Y-120210000D03*
%TD*%
%TO.C,C2*%
X104520000Y-124710000D03*
D15*
X104520000Y-127210000D03*
%TD*%
D16*
%TO.C,Q1*%
X123970000Y-115830000D03*
X123970000Y-118430000D03*
D17*
X123970000Y-113230000D03*
%TD*%
D12*
%TO.C,R1*%
X117090000Y-105780000D03*
D11*
X117090000Y-113400000D03*
%TD*%
%TO.C,R3*%
X117180000Y-120260000D03*
D12*
X109560000Y-120260000D03*
%TD*%
%TO.C,R4*%
X117170000Y-123760000D03*
D11*
X109550000Y-123760000D03*
%TD*%
%TO.C,R5*%
X120790000Y-116460000D03*
D12*
X113170000Y-116460000D03*
%TD*%
D11*
%TO.C,R6*%
X129060000Y-109900000D03*
D12*
X121440000Y-109900000D03*
%TD*%
%TO.C,R7*%
X121430000Y-106320000D03*
D11*
X129050000Y-106320000D03*
%TD*%
D18*
%TO.C,SW1*%
X96460000Y-105880000D03*
X99000000Y-105880000D03*
X101540000Y-105880000D03*
%TD*%
D15*
%TO.C,U1*%
X102700000Y-116930000D03*
D11*
X105240000Y-116930000D03*
X107780000Y-116930000D03*
X110320000Y-116930000D03*
X110320000Y-109310000D03*
X107780000Y-109310000D03*
X105240000Y-109310000D03*
X102700000Y-109310000D03*
%TD*%
D19*
%TO.C,D1*%
X114880000Y-62140000D03*
D20*
X114880000Y-59600000D03*
%TD*%
%TO.C,D2*%
X94820000Y-59640000D03*
D19*
X94820000Y-62180000D03*
%TD*%
M02*
