%TF.GenerationSoftware,KiCad,Pcbnew,(5.1.6)-1*%
%TF.CreationDate,2021-10-24T20:03:51+02:00*%
%TF.ProjectId,KiCAD_tutorial,4b694341-445f-4747-9574-6f7269616c2e,rev?*%
%TF.SameCoordinates,Original*%
%TF.FileFunction,Copper,L1,Top*%
%TF.FilePolarity,Positive*%
%FSLAX46Y46*%
G04 Gerber Fmt 4.6, Leading zero omitted, Abs format (unit mm)*
G04 Created by KiCad (PCBNEW (5.1.6)-1) date 2021-10-24 20:03:51*
%MOMM*%
%LPD*%
G01*
G04 APERTURE LIST*
%TA.AperFunction,NonConductor*%
%ADD10C,0.300000*%
%TD*%
%TA.AperFunction,ComponentPad*%
%ADD11C,1.600000*%
%TD*%
%TA.AperFunction,ComponentPad*%
%ADD12O,1.600000X1.600000*%
%TD*%
%TA.AperFunction,ComponentPad*%
%ADD13R,2.170000X2.170000*%
%TD*%
%TA.AperFunction,ComponentPad*%
%ADD14C,2.500000*%
%TD*%
%TA.AperFunction,ComponentPad*%
%ADD15R,1.600000X1.600000*%
%TD*%
%TA.AperFunction,ComponentPad*%
%ADD16C,1.500000*%
%TD*%
%TA.AperFunction,ComponentPad*%
%ADD17R,1.500000X1.500000*%
%TD*%
%TA.AperFunction,ComponentPad*%
%ADD18C,2.100000*%
%TD*%
%TA.AperFunction,ComponentPad*%
%ADD19R,1.800000X1.800000*%
%TD*%
%TA.AperFunction,ComponentPad*%
%ADD20C,1.800000*%
%TD*%
%TA.AperFunction,ViaPad*%
%ADD21C,0.800000*%
%TD*%
%TA.AperFunction,Conductor*%
%ADD22C,0.500000*%
%TD*%
%TA.AperFunction,Conductor*%
%ADD23C,0.254000*%
%TD*%
G04 APERTURE END LIST*
D10*
X123714285Y-127738571D02*
X124071428Y-128738571D01*
X124428571Y-127738571D01*
X125285714Y-127238571D02*
X125428571Y-127238571D01*
X125571428Y-127310000D01*
X125642857Y-127381428D01*
X125714285Y-127524285D01*
X125785714Y-127810000D01*
X125785714Y-128167142D01*
X125714285Y-128452857D01*
X125642857Y-128595714D01*
X125571428Y-128667142D01*
X125428571Y-128738571D01*
X125285714Y-128738571D01*
X125142857Y-128667142D01*
X125071428Y-128595714D01*
X125000000Y-128452857D01*
X124928571Y-128167142D01*
X124928571Y-127810000D01*
X125000000Y-127524285D01*
X125071428Y-127381428D01*
X125142857Y-127310000D01*
X125285714Y-127238571D01*
X127214285Y-128738571D02*
X126357142Y-128738571D01*
X126785714Y-128738571D02*
X126785714Y-127238571D01*
X126642857Y-127452857D01*
X126500000Y-127595714D01*
X126357142Y-127667142D01*
D11*
%TO.P,R2,1*%
%TO.N,Net-(R1-Pad2)*%
X113580000Y-105770000D03*
D12*
%TO.P,R2,2*%
%TO.N,Net-(C1-Pad1)*%
X113580000Y-113390000D03*
%TD*%
D13*
%TO.P,BT1,Neg*%
%TO.N,N/C*%
X88820000Y-125860000D03*
D14*
%TO.P,BT1,Pos*%
X88820000Y-105860000D03*
%TD*%
D11*
%TO.P,C1,1*%
%TO.N,Net-(C1-Pad1)*%
X106800000Y-120210000D03*
%TO.P,C1,2*%
%TO.N,GND*%
X101800000Y-120210000D03*
%TD*%
%TO.P,C2,1*%
%TO.N,GND*%
X104520000Y-124710000D03*
D15*
%TO.P,C2,2*%
%TO.N,Net-(C2-Pad2)*%
X104520000Y-127210000D03*
%TD*%
D16*
%TO.P,Q1,2*%
%TO.N,Net-(Q1-Pad2)*%
X123970000Y-115830000D03*
%TO.P,Q1,3*%
%TO.N,GND*%
X123970000Y-118430000D03*
D17*
%TO.P,Q1,1*%
%TO.N,Net-(Q1-Pad1)*%
X123970000Y-113230000D03*
%TD*%
D12*
%TO.P,R1,2*%
%TO.N,Net-(R1-Pad2)*%
X117090000Y-105780000D03*
D11*
%TO.P,R1,1*%
%TO.N,VDD*%
X117090000Y-113400000D03*
%TD*%
%TO.P,R3,1*%
%TO.N,Net-(C2-Pad2)*%
X117180000Y-120260000D03*
D12*
%TO.P,R3,2*%
%TO.N,Net-(R3-Pad2)*%
X109560000Y-120260000D03*
%TD*%
%TO.P,R4,2*%
%TO.N,Net-(C2-Pad2)*%
X117170000Y-123760000D03*
D11*
%TO.P,R4,1*%
%TO.N,GND*%
X109550000Y-123760000D03*
%TD*%
%TO.P,R5,1*%
%TO.N,Net-(Q1-Pad2)*%
X120790000Y-116460000D03*
D12*
%TO.P,R5,2*%
%TO.N,Net-(C2-Pad2)*%
X113170000Y-116460000D03*
%TD*%
D11*
%TO.P,R6,1*%
%TO.N,Net-(D1-Pad1)*%
X129060000Y-109900000D03*
D12*
%TO.P,R6,2*%
%TO.N,Net-(Q1-Pad1)*%
X121440000Y-109900000D03*
%TD*%
%TO.P,R7,2*%
%TO.N,Net-(Q1-Pad1)*%
X121430000Y-106320000D03*
D11*
%TO.P,R7,1*%
%TO.N,Net-(D2-Pad1)*%
X129050000Y-106320000D03*
%TD*%
D18*
%TO.P,SW1,1*%
%TO.N,Net-(SW1-Pad1)*%
X96460000Y-105880000D03*
%TO.P,SW1,2*%
%TO.N,Net-(BT1-Pad1)*%
X99000000Y-105880000D03*
%TO.P,SW1,3*%
%TO.N,VDD*%
X101540000Y-105880000D03*
%TD*%
D15*
%TO.P,U1,1*%
%TO.N,GND*%
X102700000Y-116930000D03*
D11*
%TO.P,U1,2*%
%TO.N,Net-(C1-Pad1)*%
X105240000Y-116930000D03*
%TO.P,U1,3*%
%TO.N,Net-(R3-Pad2)*%
X107780000Y-116930000D03*
%TO.P,U1,4*%
%TO.N,VDD*%
X110320000Y-116930000D03*
%TO.P,U1,5*%
%TO.N,Net-(U1-Pad5)*%
X110320000Y-109310000D03*
%TO.P,U1,6*%
%TO.N,Net-(C1-Pad1)*%
X107780000Y-109310000D03*
%TO.P,U1,7*%
%TO.N,Net-(R1-Pad2)*%
X105240000Y-109310000D03*
%TO.P,U1,8*%
%TO.N,VDD*%
X102700000Y-109310000D03*
%TD*%
D19*
%TO.P,D1,1*%
%TO.N,Net-(D1-Pad1)*%
X114880000Y-62140000D03*
D20*
%TO.P,D1,2*%
%TO.N,VDD*%
X114880000Y-59600000D03*
%TD*%
%TO.P,D2,2*%
%TO.N,VDD*%
X94820000Y-59640000D03*
D19*
%TO.P,D2,1*%
%TO.N,Net-(D2-Pad1)*%
X94820000Y-62180000D03*
%TD*%
D21*
%TO.N,VDD*%
X109090000Y-114860000D03*
X106100000Y-111870000D03*
%TD*%
D22*
%TO.N,Net-(C1-Pad1)*%
X105240000Y-116930000D02*
X105240000Y-115600000D01*
X107780000Y-113060000D02*
X107780000Y-109310000D01*
X105240000Y-115600000D02*
X107780000Y-113060000D01*
X108110000Y-113390000D02*
X107780000Y-113060000D01*
X113580000Y-113390000D02*
X108110000Y-113390000D01*
X105240000Y-118650000D02*
X106800000Y-120210000D01*
X105240000Y-116930000D02*
X105240000Y-118650000D01*
%TO.N,Net-(C2-Pad2)*%
X116970000Y-120260000D02*
X117180000Y-120260000D01*
X113170000Y-116460000D02*
X116970000Y-120260000D01*
X117170000Y-120270000D02*
X117180000Y-120260000D01*
X117170000Y-123760000D02*
X117170000Y-120270000D01*
X104520000Y-124710000D02*
X107050000Y-122180000D01*
X115260000Y-122180000D02*
X117180000Y-120260000D01*
X107050000Y-122180000D02*
X115260000Y-122180000D01*
%TO.N,VDD*%
X101540000Y-108150000D02*
X102700000Y-109310000D01*
X101540000Y-105880000D02*
X101540000Y-108150000D01*
X110320000Y-116930000D02*
X110320000Y-115900000D01*
X110320000Y-115900000D02*
X111320000Y-114900000D01*
X115590000Y-114900000D02*
X117090000Y-113400000D01*
X111320000Y-114900000D02*
X115590000Y-114900000D01*
X110320000Y-115900000D02*
X110180000Y-115900000D01*
X110180000Y-115900000D02*
X109140000Y-114860000D01*
X109140000Y-114860000D02*
X109090000Y-114860000D01*
X105260000Y-111870000D02*
X102700000Y-109310000D01*
X106100000Y-111870000D02*
X105260000Y-111870000D01*
%TO.N,Net-(Q1-Pad2)*%
X120790000Y-116460000D02*
X121970000Y-116460000D01*
X122600000Y-115830000D02*
X123970000Y-115830000D01*
X121970000Y-116460000D02*
X122600000Y-115830000D01*
%TO.N,Net-(Q1-Pad1)*%
X121440000Y-110700000D02*
X123970000Y-113230000D01*
X121440000Y-109900000D02*
X121440000Y-110700000D01*
X121440000Y-106330000D02*
X121430000Y-106320000D01*
X121440000Y-109900000D02*
X121440000Y-106330000D01*
%TO.N,Net-(R1-Pad2)*%
X105240000Y-109310000D02*
X105240000Y-107730000D01*
X107200000Y-105770000D02*
X113580000Y-105770000D01*
X105240000Y-107730000D02*
X107200000Y-105770000D01*
X113590000Y-105780000D02*
X113580000Y-105770000D01*
X117090000Y-105780000D02*
X113590000Y-105780000D01*
%TO.N,Net-(R3-Pad2)*%
X107780000Y-118480000D02*
X109560000Y-120260000D01*
X107780000Y-116930000D02*
X107780000Y-118480000D01*
%TO.N,Net-(BT1-Pad1)*%
X88820000Y-105860000D02*
X91620000Y-105860000D01*
X91620000Y-105860000D02*
X94550000Y-108790000D01*
X94550000Y-108790000D02*
X98080000Y-108790000D01*
X99000000Y-107870000D02*
X99000000Y-105880000D01*
X98080000Y-108790000D02*
X99000000Y-107870000D01*
%TD*%
D23*
%TO.N,GND*%
G36*
X137911659Y-129184232D02*
G01*
X128285000Y-129277103D01*
X128285000Y-126270000D01*
X122715000Y-126270000D01*
X122715000Y-129330838D01*
X71828123Y-129821758D01*
X71859614Y-126209872D01*
X72855000Y-126209872D01*
X72855000Y-126650128D01*
X72940890Y-127081925D01*
X73109369Y-127488669D01*
X73353962Y-127854729D01*
X73665271Y-128166038D01*
X74031331Y-128410631D01*
X74438075Y-128579110D01*
X74869872Y-128665000D01*
X75310128Y-128665000D01*
X75741925Y-128579110D01*
X76148669Y-128410631D01*
X76514729Y-128166038D01*
X76826038Y-127854729D01*
X77070631Y-127488669D01*
X77239110Y-127081925D01*
X77325000Y-126650128D01*
X77325000Y-126209872D01*
X77239110Y-125778075D01*
X77070631Y-125371331D01*
X76826038Y-125005271D01*
X76595767Y-124775000D01*
X87096928Y-124775000D01*
X87096928Y-126945000D01*
X87109188Y-127069482D01*
X87145498Y-127189180D01*
X87204463Y-127299494D01*
X87283815Y-127396185D01*
X87380506Y-127475537D01*
X87490820Y-127534502D01*
X87610518Y-127570812D01*
X87735000Y-127583072D01*
X89905000Y-127583072D01*
X90029482Y-127570812D01*
X90149180Y-127534502D01*
X90259494Y-127475537D01*
X90356185Y-127396185D01*
X90435537Y-127299494D01*
X90494502Y-127189180D01*
X90530812Y-127069482D01*
X90543072Y-126945000D01*
X90543072Y-124775000D01*
X90530812Y-124650518D01*
X90494502Y-124530820D01*
X90435537Y-124420506D01*
X90356185Y-124323815D01*
X90259494Y-124244463D01*
X90149180Y-124185498D01*
X90029482Y-124149188D01*
X89905000Y-124136928D01*
X87735000Y-124136928D01*
X87610518Y-124149188D01*
X87490820Y-124185498D01*
X87380506Y-124244463D01*
X87283815Y-124323815D01*
X87204463Y-124420506D01*
X87145498Y-124530820D01*
X87109188Y-124650518D01*
X87096928Y-124775000D01*
X76595767Y-124775000D01*
X76514729Y-124693962D01*
X76148669Y-124449369D01*
X75741925Y-124280890D01*
X75310128Y-124195000D01*
X74869872Y-124195000D01*
X74438075Y-124280890D01*
X74031331Y-124449369D01*
X73665271Y-124693962D01*
X73353962Y-125005271D01*
X73109369Y-125371331D01*
X72940890Y-125778075D01*
X72855000Y-126209872D01*
X71859614Y-126209872D01*
X71903271Y-121202702D01*
X100986903Y-121202702D01*
X101058486Y-121446671D01*
X101313996Y-121567571D01*
X101588184Y-121636300D01*
X101870512Y-121650217D01*
X102150130Y-121608787D01*
X102416292Y-121513603D01*
X102541514Y-121446671D01*
X102613097Y-121202702D01*
X101800000Y-120389605D01*
X100986903Y-121202702D01*
X71903271Y-121202702D01*
X71911312Y-120280512D01*
X100359783Y-120280512D01*
X100401213Y-120560130D01*
X100496397Y-120826292D01*
X100563329Y-120951514D01*
X100807298Y-121023097D01*
X101620395Y-120210000D01*
X101979605Y-120210000D01*
X102792702Y-121023097D01*
X103036671Y-120951514D01*
X103157571Y-120696004D01*
X103226300Y-120421816D01*
X103240217Y-120139488D01*
X103198787Y-119859870D01*
X103103603Y-119593708D01*
X103036671Y-119468486D01*
X102792702Y-119396903D01*
X101979605Y-120210000D01*
X101620395Y-120210000D01*
X100807298Y-119396903D01*
X100563329Y-119468486D01*
X100442429Y-119723996D01*
X100373700Y-119998184D01*
X100359783Y-120280512D01*
X71911312Y-120280512D01*
X71920582Y-119217298D01*
X100986903Y-119217298D01*
X101800000Y-120030395D01*
X102613097Y-119217298D01*
X102541514Y-118973329D01*
X102286004Y-118852429D01*
X102011816Y-118783700D01*
X101729488Y-118769783D01*
X101449870Y-118811213D01*
X101183708Y-118906397D01*
X101058486Y-118973329D01*
X100986903Y-119217298D01*
X71920582Y-119217298D01*
X71933549Y-117730000D01*
X101261928Y-117730000D01*
X101274188Y-117854482D01*
X101310498Y-117974180D01*
X101369463Y-118084494D01*
X101448815Y-118181185D01*
X101545506Y-118260537D01*
X101655820Y-118319502D01*
X101775518Y-118355812D01*
X101900000Y-118368072D01*
X102414250Y-118365000D01*
X102573000Y-118206250D01*
X102573000Y-117057000D01*
X101423750Y-117057000D01*
X101265000Y-117215750D01*
X101261928Y-117730000D01*
X71933549Y-117730000D01*
X71947499Y-116130000D01*
X101261928Y-116130000D01*
X101265000Y-116644250D01*
X101423750Y-116803000D01*
X102573000Y-116803000D01*
X102573000Y-115653750D01*
X102414250Y-115495000D01*
X101900000Y-115491928D01*
X101775518Y-115504188D01*
X101655820Y-115540498D01*
X101545506Y-115599463D01*
X101448815Y-115678815D01*
X101369463Y-115775506D01*
X101310498Y-115885820D01*
X101274188Y-116005518D01*
X101261928Y-116130000D01*
X71947499Y-116130000D01*
X72038663Y-105674344D01*
X86935000Y-105674344D01*
X86935000Y-106045656D01*
X87007439Y-106409834D01*
X87149534Y-106752882D01*
X87355825Y-107061618D01*
X87618382Y-107324175D01*
X87927118Y-107530466D01*
X88270166Y-107672561D01*
X88634344Y-107745000D01*
X89005656Y-107745000D01*
X89369834Y-107672561D01*
X89712882Y-107530466D01*
X90021618Y-107324175D01*
X90284175Y-107061618D01*
X90490466Y-106752882D01*
X90493731Y-106745000D01*
X91253422Y-106745000D01*
X93893470Y-109385049D01*
X93921183Y-109418817D01*
X93954951Y-109446530D01*
X93954953Y-109446532D01*
X94055940Y-109529410D01*
X94055941Y-109529411D01*
X94209687Y-109611589D01*
X94376510Y-109662195D01*
X94506523Y-109675000D01*
X94506531Y-109675000D01*
X94550000Y-109679281D01*
X94593469Y-109675000D01*
X98036531Y-109675000D01*
X98080000Y-109679281D01*
X98123469Y-109675000D01*
X98123477Y-109675000D01*
X98253490Y-109662195D01*
X98420313Y-109611589D01*
X98574059Y-109529411D01*
X98708817Y-109418817D01*
X98736534Y-109385044D01*
X99595050Y-108526529D01*
X99628817Y-108498817D01*
X99656571Y-108465000D01*
X99739410Y-108364060D01*
X99739411Y-108364059D01*
X99821589Y-108210313D01*
X99872195Y-108043490D01*
X99885000Y-107913477D01*
X99885000Y-107913467D01*
X99889281Y-107870001D01*
X99885000Y-107826535D01*
X99885000Y-107315195D01*
X100074125Y-107188825D01*
X100270000Y-106992950D01*
X100465875Y-107188825D01*
X100655001Y-107315195D01*
X100655001Y-108106521D01*
X100650719Y-108150000D01*
X100667805Y-108323490D01*
X100718412Y-108490313D01*
X100800590Y-108644059D01*
X100883468Y-108745046D01*
X100883471Y-108745049D01*
X100911184Y-108778817D01*
X100944951Y-108806529D01*
X101271983Y-109133561D01*
X101265000Y-109168665D01*
X101265000Y-109451335D01*
X101320147Y-109728574D01*
X101428320Y-109989727D01*
X101585363Y-110224759D01*
X101785241Y-110424637D01*
X102020273Y-110581680D01*
X102281426Y-110689853D01*
X102558665Y-110745000D01*
X102841335Y-110745000D01*
X102876439Y-110738017D01*
X104603470Y-112465049D01*
X104631183Y-112498817D01*
X104664951Y-112526530D01*
X104664953Y-112526532D01*
X104712973Y-112565941D01*
X104765941Y-112609411D01*
X104919687Y-112691589D01*
X105086510Y-112742195D01*
X105216523Y-112755000D01*
X105216531Y-112755000D01*
X105260000Y-112759281D01*
X105303469Y-112755000D01*
X105561546Y-112755000D01*
X105609744Y-112787205D01*
X105798102Y-112865226D01*
X105998061Y-112905000D01*
X106201939Y-112905000D01*
X106401898Y-112865226D01*
X106590256Y-112787205D01*
X106759774Y-112673937D01*
X106895000Y-112538711D01*
X106895000Y-112693421D01*
X104644951Y-114943471D01*
X104611184Y-114971183D01*
X104583471Y-115004951D01*
X104583468Y-115004954D01*
X104500590Y-115105941D01*
X104418412Y-115259687D01*
X104367805Y-115426510D01*
X104350719Y-115600000D01*
X104355001Y-115643478D01*
X104355001Y-115795478D01*
X104325241Y-115815363D01*
X104126643Y-116013961D01*
X104125812Y-116005518D01*
X104089502Y-115885820D01*
X104030537Y-115775506D01*
X103951185Y-115678815D01*
X103854494Y-115599463D01*
X103744180Y-115540498D01*
X103624482Y-115504188D01*
X103500000Y-115491928D01*
X102985750Y-115495000D01*
X102827000Y-115653750D01*
X102827000Y-116803000D01*
X102847000Y-116803000D01*
X102847000Y-117057000D01*
X102827000Y-117057000D01*
X102827000Y-118206250D01*
X102985750Y-118365000D01*
X103500000Y-118368072D01*
X103624482Y-118355812D01*
X103744180Y-118319502D01*
X103854494Y-118260537D01*
X103951185Y-118181185D01*
X104030537Y-118084494D01*
X104089502Y-117974180D01*
X104125812Y-117854482D01*
X104126643Y-117846039D01*
X104325241Y-118044637D01*
X104355001Y-118064522D01*
X104355001Y-118606521D01*
X104350719Y-118650000D01*
X104367805Y-118823490D01*
X104418412Y-118990313D01*
X104500590Y-119144059D01*
X104583468Y-119245046D01*
X104583471Y-119245049D01*
X104611184Y-119278817D01*
X104644951Y-119306529D01*
X105371983Y-120033561D01*
X105365000Y-120068665D01*
X105365000Y-120351335D01*
X105420147Y-120628574D01*
X105528320Y-120889727D01*
X105685363Y-121124759D01*
X105885241Y-121324637D01*
X106120273Y-121481680D01*
X106381426Y-121589853D01*
X106387383Y-121591038D01*
X104696464Y-123281957D01*
X104449488Y-123269783D01*
X104169870Y-123311213D01*
X103903708Y-123406397D01*
X103778486Y-123473329D01*
X103706903Y-123717298D01*
X103984013Y-123994408D01*
X103863468Y-124114954D01*
X103810225Y-124179830D01*
X103527298Y-123896903D01*
X103283329Y-123968486D01*
X103162429Y-124223996D01*
X103093700Y-124498184D01*
X103079783Y-124780512D01*
X103121213Y-125060130D01*
X103216397Y-125326292D01*
X103283329Y-125451514D01*
X103527298Y-125523097D01*
X103810225Y-125240170D01*
X103891183Y-125338817D01*
X103989830Y-125419775D01*
X103706903Y-125702702D01*
X103727215Y-125771928D01*
X103720000Y-125771928D01*
X103595518Y-125784188D01*
X103475820Y-125820498D01*
X103365506Y-125879463D01*
X103268815Y-125958815D01*
X103189463Y-126055506D01*
X103130498Y-126165820D01*
X103094188Y-126285518D01*
X103081928Y-126410000D01*
X103081928Y-128010000D01*
X103094188Y-128134482D01*
X103130498Y-128254180D01*
X103189463Y-128364494D01*
X103268815Y-128461185D01*
X103365506Y-128540537D01*
X103475820Y-128599502D01*
X103595518Y-128635812D01*
X103720000Y-128648072D01*
X105320000Y-128648072D01*
X105444482Y-128635812D01*
X105564180Y-128599502D01*
X105674494Y-128540537D01*
X105771185Y-128461185D01*
X105850537Y-128364494D01*
X105909502Y-128254180D01*
X105945812Y-128134482D01*
X105958072Y-128010000D01*
X105958072Y-126410000D01*
X105945812Y-126285518D01*
X105909502Y-126165820D01*
X105850537Y-126055506D01*
X105771185Y-125958815D01*
X105674494Y-125879463D01*
X105564180Y-125820498D01*
X105444482Y-125784188D01*
X105320000Y-125771928D01*
X105312785Y-125771928D01*
X105333097Y-125702702D01*
X105230267Y-125599872D01*
X132325000Y-125599872D01*
X132325000Y-126040128D01*
X132410890Y-126471925D01*
X132579369Y-126878669D01*
X132823962Y-127244729D01*
X133135271Y-127556038D01*
X133501331Y-127800631D01*
X133908075Y-127969110D01*
X134339872Y-128055000D01*
X134780128Y-128055000D01*
X135211925Y-127969110D01*
X135618669Y-127800631D01*
X135984729Y-127556038D01*
X136296038Y-127244729D01*
X136540631Y-126878669D01*
X136709110Y-126471925D01*
X136795000Y-126040128D01*
X136795000Y-125599872D01*
X136709110Y-125168075D01*
X136540631Y-124761331D01*
X136296038Y-124395271D01*
X135984729Y-124083962D01*
X135618669Y-123839369D01*
X135211925Y-123670890D01*
X134780128Y-123585000D01*
X134339872Y-123585000D01*
X133908075Y-123670890D01*
X133501331Y-123839369D01*
X133135271Y-124083962D01*
X132823962Y-124395271D01*
X132579369Y-124761331D01*
X132410890Y-125168075D01*
X132325000Y-125599872D01*
X105230267Y-125599872D01*
X105050170Y-125419775D01*
X105115046Y-125366532D01*
X105235592Y-125245987D01*
X105512702Y-125523097D01*
X105756671Y-125451514D01*
X105877571Y-125196004D01*
X105946300Y-124921816D01*
X105954636Y-124752702D01*
X108736903Y-124752702D01*
X108808486Y-124996671D01*
X109063996Y-125117571D01*
X109338184Y-125186300D01*
X109620512Y-125200217D01*
X109900130Y-125158787D01*
X110166292Y-125063603D01*
X110291514Y-124996671D01*
X110363097Y-124752702D01*
X109550000Y-123939605D01*
X108736903Y-124752702D01*
X105954636Y-124752702D01*
X105960217Y-124639488D01*
X105944973Y-124536605D01*
X107416579Y-123065000D01*
X108291320Y-123065000D01*
X108192429Y-123273996D01*
X108123700Y-123548184D01*
X108109783Y-123830512D01*
X108151213Y-124110130D01*
X108246397Y-124376292D01*
X108313329Y-124501514D01*
X108557298Y-124573097D01*
X109370395Y-123760000D01*
X109356253Y-123745858D01*
X109535858Y-123566253D01*
X109550000Y-123580395D01*
X109564143Y-123566253D01*
X109743748Y-123745858D01*
X109729605Y-123760000D01*
X110542702Y-124573097D01*
X110786671Y-124501514D01*
X110907571Y-124246004D01*
X110976300Y-123971816D01*
X110990217Y-123689488D01*
X110948787Y-123409870D01*
X110853603Y-123143708D01*
X110811533Y-123065000D01*
X115216531Y-123065000D01*
X115260000Y-123069281D01*
X115303469Y-123065000D01*
X115303477Y-123065000D01*
X115433490Y-123052195D01*
X115600313Y-123001589D01*
X115754059Y-122919411D01*
X115888817Y-122808817D01*
X115916534Y-122775044D01*
X116285000Y-122406578D01*
X116285000Y-122625478D01*
X116255241Y-122645363D01*
X116055363Y-122845241D01*
X115898320Y-123080273D01*
X115790147Y-123341426D01*
X115735000Y-123618665D01*
X115735000Y-123901335D01*
X115790147Y-124178574D01*
X115898320Y-124439727D01*
X116055363Y-124674759D01*
X116255241Y-124874637D01*
X116490273Y-125031680D01*
X116751426Y-125139853D01*
X117028665Y-125195000D01*
X117311335Y-125195000D01*
X117588574Y-125139853D01*
X117849727Y-125031680D01*
X118084759Y-124874637D01*
X118284637Y-124674759D01*
X118441680Y-124439727D01*
X118549853Y-124178574D01*
X118605000Y-123901335D01*
X118605000Y-123618665D01*
X118549853Y-123341426D01*
X118441680Y-123080273D01*
X118284637Y-122845241D01*
X118084759Y-122645363D01*
X118055000Y-122625479D01*
X118055000Y-121401203D01*
X118094759Y-121374637D01*
X118294637Y-121174759D01*
X118451680Y-120939727D01*
X118559853Y-120678574D01*
X118615000Y-120401335D01*
X118615000Y-120118665D01*
X118559853Y-119841426D01*
X118451680Y-119580273D01*
X118322535Y-119386993D01*
X123192612Y-119386993D01*
X123258137Y-119625860D01*
X123505116Y-119741760D01*
X123769960Y-119807250D01*
X124042492Y-119819812D01*
X124312238Y-119778965D01*
X124568832Y-119686277D01*
X124681863Y-119625860D01*
X124747388Y-119386993D01*
X123970000Y-118609605D01*
X123192612Y-119386993D01*
X118322535Y-119386993D01*
X118294637Y-119345241D01*
X118094759Y-119145363D01*
X117859727Y-118988320D01*
X117598574Y-118880147D01*
X117321335Y-118825000D01*
X117038665Y-118825000D01*
X116828403Y-118866824D01*
X116464071Y-118502492D01*
X122580188Y-118502492D01*
X122621035Y-118772238D01*
X122713723Y-119028832D01*
X122774140Y-119141863D01*
X123013007Y-119207388D01*
X123790395Y-118430000D01*
X124149605Y-118430000D01*
X124926993Y-119207388D01*
X125165860Y-119141863D01*
X125281760Y-118894884D01*
X125347250Y-118630040D01*
X125359812Y-118357508D01*
X125318965Y-118087762D01*
X125226277Y-117831168D01*
X125165860Y-117718137D01*
X124926993Y-117652612D01*
X124149605Y-118430000D01*
X123790395Y-118430000D01*
X123013007Y-117652612D01*
X122774140Y-117718137D01*
X122658240Y-117965116D01*
X122592750Y-118229960D01*
X122580188Y-118502492D01*
X116464071Y-118502492D01*
X114598017Y-116636439D01*
X114605000Y-116601335D01*
X114605000Y-116318665D01*
X119355000Y-116318665D01*
X119355000Y-116601335D01*
X119410147Y-116878574D01*
X119518320Y-117139727D01*
X119675363Y-117374759D01*
X119875241Y-117574637D01*
X120110273Y-117731680D01*
X120371426Y-117839853D01*
X120648665Y-117895000D01*
X120931335Y-117895000D01*
X121208574Y-117839853D01*
X121469727Y-117731680D01*
X121704759Y-117574637D01*
X121904637Y-117374759D01*
X121924521Y-117345000D01*
X121926531Y-117345000D01*
X121970000Y-117349281D01*
X122013469Y-117345000D01*
X122013477Y-117345000D01*
X122143490Y-117332195D01*
X122310313Y-117281589D01*
X122464059Y-117199411D01*
X122598817Y-117088817D01*
X122626534Y-117055044D01*
X122931447Y-116750132D01*
X123087114Y-116905799D01*
X123313957Y-117057371D01*
X123490655Y-117130561D01*
X123371168Y-117173723D01*
X123258137Y-117234140D01*
X123192612Y-117473007D01*
X123970000Y-118250395D01*
X124747388Y-117473007D01*
X124681863Y-117234140D01*
X124455610Y-117127966D01*
X124626043Y-117057371D01*
X124852886Y-116905799D01*
X125045799Y-116712886D01*
X125197371Y-116486043D01*
X125301775Y-116233989D01*
X125355000Y-115966411D01*
X125355000Y-115693589D01*
X125301775Y-115426011D01*
X125197371Y-115173957D01*
X125045799Y-114947114D01*
X124852886Y-114754201D01*
X124649155Y-114618072D01*
X124720000Y-114618072D01*
X124844482Y-114605812D01*
X124964180Y-114569502D01*
X125074494Y-114510537D01*
X125171185Y-114431185D01*
X125250537Y-114334494D01*
X125309502Y-114224180D01*
X125345812Y-114104482D01*
X125358072Y-113980000D01*
X125358072Y-112480000D01*
X125345812Y-112355518D01*
X125309502Y-112235820D01*
X125250537Y-112125506D01*
X125171185Y-112028815D01*
X125074494Y-111949463D01*
X124964180Y-111890498D01*
X124844482Y-111854188D01*
X124720000Y-111841928D01*
X123833507Y-111841928D01*
X122655454Y-110663876D01*
X122711680Y-110579727D01*
X122819853Y-110318574D01*
X122875000Y-110041335D01*
X122875000Y-109758665D01*
X127625000Y-109758665D01*
X127625000Y-110041335D01*
X127680147Y-110318574D01*
X127788320Y-110579727D01*
X127945363Y-110814759D01*
X128145241Y-111014637D01*
X128380273Y-111171680D01*
X128641426Y-111279853D01*
X128918665Y-111335000D01*
X129201335Y-111335000D01*
X129478574Y-111279853D01*
X129739727Y-111171680D01*
X129974759Y-111014637D01*
X130174637Y-110814759D01*
X130331680Y-110579727D01*
X130439853Y-110318574D01*
X130495000Y-110041335D01*
X130495000Y-109758665D01*
X130439853Y-109481426D01*
X130331680Y-109220273D01*
X130174637Y-108985241D01*
X129974759Y-108785363D01*
X129739727Y-108628320D01*
X129478574Y-108520147D01*
X129201335Y-108465000D01*
X128918665Y-108465000D01*
X128641426Y-108520147D01*
X128380273Y-108628320D01*
X128145241Y-108785363D01*
X127945363Y-108985241D01*
X127788320Y-109220273D01*
X127680147Y-109481426D01*
X127625000Y-109758665D01*
X122875000Y-109758665D01*
X122819853Y-109481426D01*
X122711680Y-109220273D01*
X122554637Y-108985241D01*
X122354759Y-108785363D01*
X122325000Y-108765479D01*
X122325000Y-107447840D01*
X122344759Y-107434637D01*
X122544637Y-107234759D01*
X122701680Y-106999727D01*
X122809853Y-106738574D01*
X122865000Y-106461335D01*
X122865000Y-106178665D01*
X127615000Y-106178665D01*
X127615000Y-106461335D01*
X127670147Y-106738574D01*
X127778320Y-106999727D01*
X127935363Y-107234759D01*
X128135241Y-107434637D01*
X128370273Y-107591680D01*
X128631426Y-107699853D01*
X128908665Y-107755000D01*
X129191335Y-107755000D01*
X129468574Y-107699853D01*
X129729727Y-107591680D01*
X129964759Y-107434637D01*
X130164637Y-107234759D01*
X130321680Y-106999727D01*
X130429853Y-106738574D01*
X130485000Y-106461335D01*
X130485000Y-106178665D01*
X130429853Y-105901426D01*
X130321680Y-105640273D01*
X130164637Y-105405241D01*
X129964759Y-105205363D01*
X129729727Y-105048320D01*
X129468574Y-104940147D01*
X129191335Y-104885000D01*
X128908665Y-104885000D01*
X128631426Y-104940147D01*
X128370273Y-105048320D01*
X128135241Y-105205363D01*
X127935363Y-105405241D01*
X127778320Y-105640273D01*
X127670147Y-105901426D01*
X127615000Y-106178665D01*
X122865000Y-106178665D01*
X122809853Y-105901426D01*
X122701680Y-105640273D01*
X122544637Y-105405241D01*
X122344759Y-105205363D01*
X122109727Y-105048320D01*
X121848574Y-104940147D01*
X121571335Y-104885000D01*
X121288665Y-104885000D01*
X121011426Y-104940147D01*
X120750273Y-105048320D01*
X120515241Y-105205363D01*
X120315363Y-105405241D01*
X120158320Y-105640273D01*
X120050147Y-105901426D01*
X119995000Y-106178665D01*
X119995000Y-106461335D01*
X120050147Y-106738574D01*
X120158320Y-106999727D01*
X120315363Y-107234759D01*
X120515241Y-107434637D01*
X120555001Y-107461204D01*
X120555000Y-108765479D01*
X120525241Y-108785363D01*
X120325363Y-108985241D01*
X120168320Y-109220273D01*
X120060147Y-109481426D01*
X120005000Y-109758665D01*
X120005000Y-110041335D01*
X120060147Y-110318574D01*
X120168320Y-110579727D01*
X120325363Y-110814759D01*
X120525241Y-111014637D01*
X120648826Y-111097213D01*
X120700590Y-111194059D01*
X120783468Y-111295046D01*
X120783471Y-111295049D01*
X120811184Y-111328817D01*
X120844951Y-111356529D01*
X122581928Y-113093507D01*
X122581928Y-113980000D01*
X122594188Y-114104482D01*
X122630498Y-114224180D01*
X122689463Y-114334494D01*
X122768815Y-114431185D01*
X122865506Y-114510537D01*
X122975820Y-114569502D01*
X123095518Y-114605812D01*
X123220000Y-114618072D01*
X123290845Y-114618072D01*
X123087114Y-114754201D01*
X122896315Y-114945000D01*
X122643469Y-114945000D01*
X122600000Y-114940719D01*
X122556531Y-114945000D01*
X122556523Y-114945000D01*
X122426510Y-114957805D01*
X122259686Y-115008411D01*
X122105941Y-115090589D01*
X122004953Y-115173468D01*
X122004951Y-115173470D01*
X121971183Y-115201183D01*
X121943470Y-115234951D01*
X121768909Y-115409513D01*
X121704759Y-115345363D01*
X121469727Y-115188320D01*
X121208574Y-115080147D01*
X120931335Y-115025000D01*
X120648665Y-115025000D01*
X120371426Y-115080147D01*
X120110273Y-115188320D01*
X119875241Y-115345363D01*
X119675363Y-115545241D01*
X119518320Y-115780273D01*
X119410147Y-116041426D01*
X119355000Y-116318665D01*
X114605000Y-116318665D01*
X114549853Y-116041426D01*
X114443638Y-115785000D01*
X115546531Y-115785000D01*
X115590000Y-115789281D01*
X115633469Y-115785000D01*
X115633477Y-115785000D01*
X115763490Y-115772195D01*
X115930313Y-115721589D01*
X116084059Y-115639411D01*
X116218817Y-115528817D01*
X116246534Y-115495044D01*
X116913561Y-114828017D01*
X116948665Y-114835000D01*
X117231335Y-114835000D01*
X117508574Y-114779853D01*
X117769727Y-114671680D01*
X118004759Y-114514637D01*
X118204637Y-114314759D01*
X118361680Y-114079727D01*
X118469853Y-113818574D01*
X118525000Y-113541335D01*
X118525000Y-113258665D01*
X118469853Y-112981426D01*
X118361680Y-112720273D01*
X118204637Y-112485241D01*
X118004759Y-112285363D01*
X117769727Y-112128320D01*
X117508574Y-112020147D01*
X117231335Y-111965000D01*
X116948665Y-111965000D01*
X116671426Y-112020147D01*
X116410273Y-112128320D01*
X116175241Y-112285363D01*
X115975363Y-112485241D01*
X115818320Y-112720273D01*
X115710147Y-112981426D01*
X115655000Y-113258665D01*
X115655000Y-113541335D01*
X115661983Y-113576439D01*
X115223422Y-114015000D01*
X114874349Y-114015000D01*
X114959853Y-113808574D01*
X115015000Y-113531335D01*
X115015000Y-113248665D01*
X114959853Y-112971426D01*
X114851680Y-112710273D01*
X114694637Y-112475241D01*
X114494759Y-112275363D01*
X114259727Y-112118320D01*
X113998574Y-112010147D01*
X113721335Y-111955000D01*
X113438665Y-111955000D01*
X113161426Y-112010147D01*
X112900273Y-112118320D01*
X112665241Y-112275363D01*
X112465363Y-112475241D01*
X112445479Y-112505000D01*
X108665000Y-112505000D01*
X108665000Y-110444521D01*
X108694759Y-110424637D01*
X108894637Y-110224759D01*
X109050000Y-109992241D01*
X109205363Y-110224759D01*
X109405241Y-110424637D01*
X109640273Y-110581680D01*
X109901426Y-110689853D01*
X110178665Y-110745000D01*
X110461335Y-110745000D01*
X110738574Y-110689853D01*
X110999727Y-110581680D01*
X111234759Y-110424637D01*
X111434637Y-110224759D01*
X111591680Y-109989727D01*
X111699853Y-109728574D01*
X111755000Y-109451335D01*
X111755000Y-109168665D01*
X111699853Y-108891426D01*
X111591680Y-108630273D01*
X111434637Y-108395241D01*
X111234759Y-108195363D01*
X110999727Y-108038320D01*
X110738574Y-107930147D01*
X110461335Y-107875000D01*
X110178665Y-107875000D01*
X109901426Y-107930147D01*
X109640273Y-108038320D01*
X109405241Y-108195363D01*
X109205363Y-108395241D01*
X109050000Y-108627759D01*
X108894637Y-108395241D01*
X108694759Y-108195363D01*
X108459727Y-108038320D01*
X108198574Y-107930147D01*
X107921335Y-107875000D01*
X107638665Y-107875000D01*
X107361426Y-107930147D01*
X107100273Y-108038320D01*
X106865241Y-108195363D01*
X106665363Y-108395241D01*
X106510000Y-108627759D01*
X106354637Y-108395241D01*
X106154759Y-108195363D01*
X106125000Y-108175479D01*
X106125000Y-108096578D01*
X107566579Y-106655000D01*
X112445479Y-106655000D01*
X112465363Y-106684759D01*
X112665241Y-106884637D01*
X112900273Y-107041680D01*
X113161426Y-107149853D01*
X113438665Y-107205000D01*
X113721335Y-107205000D01*
X113998574Y-107149853D01*
X114259727Y-107041680D01*
X114494759Y-106884637D01*
X114694637Y-106684759D01*
X114707840Y-106665000D01*
X115955479Y-106665000D01*
X115975363Y-106694759D01*
X116175241Y-106894637D01*
X116410273Y-107051680D01*
X116671426Y-107159853D01*
X116948665Y-107215000D01*
X117231335Y-107215000D01*
X117508574Y-107159853D01*
X117769727Y-107051680D01*
X118004759Y-106894637D01*
X118204637Y-106694759D01*
X118361680Y-106459727D01*
X118469853Y-106198574D01*
X118525000Y-105921335D01*
X118525000Y-105638665D01*
X118469853Y-105361426D01*
X118361680Y-105100273D01*
X118204637Y-104865241D01*
X118004759Y-104665363D01*
X117769727Y-104508320D01*
X117508574Y-104400147D01*
X117231335Y-104345000D01*
X116948665Y-104345000D01*
X116671426Y-104400147D01*
X116410273Y-104508320D01*
X116175241Y-104665363D01*
X115975363Y-104865241D01*
X115955479Y-104895000D01*
X114721203Y-104895000D01*
X114694637Y-104855241D01*
X114494759Y-104655363D01*
X114259727Y-104498320D01*
X113998574Y-104390147D01*
X113721335Y-104335000D01*
X113438665Y-104335000D01*
X113161426Y-104390147D01*
X112900273Y-104498320D01*
X112665241Y-104655363D01*
X112465363Y-104855241D01*
X112445479Y-104885000D01*
X107243469Y-104885000D01*
X107200000Y-104880719D01*
X107156531Y-104885000D01*
X107156523Y-104885000D01*
X107026510Y-104897805D01*
X106859686Y-104948411D01*
X106705941Y-105030589D01*
X106604953Y-105113468D01*
X106604951Y-105113470D01*
X106571183Y-105141183D01*
X106543470Y-105174951D01*
X104644951Y-107073471D01*
X104611184Y-107101183D01*
X104583471Y-107134951D01*
X104583468Y-107134954D01*
X104500590Y-107235941D01*
X104418412Y-107389687D01*
X104367805Y-107556510D01*
X104350719Y-107730000D01*
X104355001Y-107773479D01*
X104355001Y-108175478D01*
X104325241Y-108195363D01*
X104125363Y-108395241D01*
X103970000Y-108627759D01*
X103814637Y-108395241D01*
X103614759Y-108195363D01*
X103379727Y-108038320D01*
X103118574Y-107930147D01*
X102841335Y-107875000D01*
X102558665Y-107875000D01*
X102523561Y-107881983D01*
X102425000Y-107783422D01*
X102425000Y-107315195D01*
X102614125Y-107188825D01*
X102848825Y-106954125D01*
X103033228Y-106678147D01*
X103160246Y-106371496D01*
X103225000Y-106045958D01*
X103225000Y-105714042D01*
X103160246Y-105388504D01*
X103033228Y-105081853D01*
X102848825Y-104805875D01*
X102614125Y-104571175D01*
X102338147Y-104386772D01*
X102031496Y-104259754D01*
X101705958Y-104195000D01*
X101374042Y-104195000D01*
X101048504Y-104259754D01*
X100741853Y-104386772D01*
X100465875Y-104571175D01*
X100270000Y-104767050D01*
X100074125Y-104571175D01*
X99798147Y-104386772D01*
X99491496Y-104259754D01*
X99165958Y-104195000D01*
X98834042Y-104195000D01*
X98508504Y-104259754D01*
X98201853Y-104386772D01*
X97925875Y-104571175D01*
X97730000Y-104767050D01*
X97534125Y-104571175D01*
X97258147Y-104386772D01*
X96951496Y-104259754D01*
X96625958Y-104195000D01*
X96294042Y-104195000D01*
X95968504Y-104259754D01*
X95661853Y-104386772D01*
X95385875Y-104571175D01*
X95151175Y-104805875D01*
X94966772Y-105081853D01*
X94839754Y-105388504D01*
X94775000Y-105714042D01*
X94775000Y-106045958D01*
X94839754Y-106371496D01*
X94966772Y-106678147D01*
X95151175Y-106954125D01*
X95385875Y-107188825D01*
X95661853Y-107373228D01*
X95968504Y-107500246D01*
X96294042Y-107565000D01*
X96625958Y-107565000D01*
X96951496Y-107500246D01*
X97258147Y-107373228D01*
X97534125Y-107188825D01*
X97730000Y-106992950D01*
X97925875Y-107188825D01*
X98115000Y-107315195D01*
X98115000Y-107503421D01*
X97713422Y-107905000D01*
X94916579Y-107905000D01*
X92276534Y-105264956D01*
X92248817Y-105231183D01*
X92114059Y-105120589D01*
X91960313Y-105038411D01*
X91793490Y-104987805D01*
X91663477Y-104975000D01*
X91663469Y-104975000D01*
X91620000Y-104970719D01*
X91576531Y-104975000D01*
X90493731Y-104975000D01*
X90490466Y-104967118D01*
X90284175Y-104658382D01*
X90021618Y-104395825D01*
X89712882Y-104189534D01*
X89369834Y-104047439D01*
X89005656Y-103975000D01*
X88634344Y-103975000D01*
X88270166Y-104047439D01*
X87927118Y-104189534D01*
X87618382Y-104395825D01*
X87355825Y-104658382D01*
X87149534Y-104967118D01*
X87007439Y-105310166D01*
X86935000Y-105674344D01*
X72038663Y-105674344D01*
X72085898Y-100256904D01*
X137604341Y-100207096D01*
X137911659Y-129184232D01*
G37*
X137911659Y-129184232D02*
X128285000Y-129277103D01*
X128285000Y-126270000D01*
X122715000Y-126270000D01*
X122715000Y-129330838D01*
X71828123Y-129821758D01*
X71859614Y-126209872D01*
X72855000Y-126209872D01*
X72855000Y-126650128D01*
X72940890Y-127081925D01*
X73109369Y-127488669D01*
X73353962Y-127854729D01*
X73665271Y-128166038D01*
X74031331Y-128410631D01*
X74438075Y-128579110D01*
X74869872Y-128665000D01*
X75310128Y-128665000D01*
X75741925Y-128579110D01*
X76148669Y-128410631D01*
X76514729Y-128166038D01*
X76826038Y-127854729D01*
X77070631Y-127488669D01*
X77239110Y-127081925D01*
X77325000Y-126650128D01*
X77325000Y-126209872D01*
X77239110Y-125778075D01*
X77070631Y-125371331D01*
X76826038Y-125005271D01*
X76595767Y-124775000D01*
X87096928Y-124775000D01*
X87096928Y-126945000D01*
X87109188Y-127069482D01*
X87145498Y-127189180D01*
X87204463Y-127299494D01*
X87283815Y-127396185D01*
X87380506Y-127475537D01*
X87490820Y-127534502D01*
X87610518Y-127570812D01*
X87735000Y-127583072D01*
X89905000Y-127583072D01*
X90029482Y-127570812D01*
X90149180Y-127534502D01*
X90259494Y-127475537D01*
X90356185Y-127396185D01*
X90435537Y-127299494D01*
X90494502Y-127189180D01*
X90530812Y-127069482D01*
X90543072Y-126945000D01*
X90543072Y-124775000D01*
X90530812Y-124650518D01*
X90494502Y-124530820D01*
X90435537Y-124420506D01*
X90356185Y-124323815D01*
X90259494Y-124244463D01*
X90149180Y-124185498D01*
X90029482Y-124149188D01*
X89905000Y-124136928D01*
X87735000Y-124136928D01*
X87610518Y-124149188D01*
X87490820Y-124185498D01*
X87380506Y-124244463D01*
X87283815Y-124323815D01*
X87204463Y-124420506D01*
X87145498Y-124530820D01*
X87109188Y-124650518D01*
X87096928Y-124775000D01*
X76595767Y-124775000D01*
X76514729Y-124693962D01*
X76148669Y-124449369D01*
X75741925Y-124280890D01*
X75310128Y-124195000D01*
X74869872Y-124195000D01*
X74438075Y-124280890D01*
X74031331Y-124449369D01*
X73665271Y-124693962D01*
X73353962Y-125005271D01*
X73109369Y-125371331D01*
X72940890Y-125778075D01*
X72855000Y-126209872D01*
X71859614Y-126209872D01*
X71903271Y-121202702D01*
X100986903Y-121202702D01*
X101058486Y-121446671D01*
X101313996Y-121567571D01*
X101588184Y-121636300D01*
X101870512Y-121650217D01*
X102150130Y-121608787D01*
X102416292Y-121513603D01*
X102541514Y-121446671D01*
X102613097Y-121202702D01*
X101800000Y-120389605D01*
X100986903Y-121202702D01*
X71903271Y-121202702D01*
X71911312Y-120280512D01*
X100359783Y-120280512D01*
X100401213Y-120560130D01*
X100496397Y-120826292D01*
X100563329Y-120951514D01*
X100807298Y-121023097D01*
X101620395Y-120210000D01*
X101979605Y-120210000D01*
X102792702Y-121023097D01*
X103036671Y-120951514D01*
X103157571Y-120696004D01*
X103226300Y-120421816D01*
X103240217Y-120139488D01*
X103198787Y-119859870D01*
X103103603Y-119593708D01*
X103036671Y-119468486D01*
X102792702Y-119396903D01*
X101979605Y-120210000D01*
X101620395Y-120210000D01*
X100807298Y-119396903D01*
X100563329Y-119468486D01*
X100442429Y-119723996D01*
X100373700Y-119998184D01*
X100359783Y-120280512D01*
X71911312Y-120280512D01*
X71920582Y-119217298D01*
X100986903Y-119217298D01*
X101800000Y-120030395D01*
X102613097Y-119217298D01*
X102541514Y-118973329D01*
X102286004Y-118852429D01*
X102011816Y-118783700D01*
X101729488Y-118769783D01*
X101449870Y-118811213D01*
X101183708Y-118906397D01*
X101058486Y-118973329D01*
X100986903Y-119217298D01*
X71920582Y-119217298D01*
X71933549Y-117730000D01*
X101261928Y-117730000D01*
X101274188Y-117854482D01*
X101310498Y-117974180D01*
X101369463Y-118084494D01*
X101448815Y-118181185D01*
X101545506Y-118260537D01*
X101655820Y-118319502D01*
X101775518Y-118355812D01*
X101900000Y-118368072D01*
X102414250Y-118365000D01*
X102573000Y-118206250D01*
X102573000Y-117057000D01*
X101423750Y-117057000D01*
X101265000Y-117215750D01*
X101261928Y-117730000D01*
X71933549Y-117730000D01*
X71947499Y-116130000D01*
X101261928Y-116130000D01*
X101265000Y-116644250D01*
X101423750Y-116803000D01*
X102573000Y-116803000D01*
X102573000Y-115653750D01*
X102414250Y-115495000D01*
X101900000Y-115491928D01*
X101775518Y-115504188D01*
X101655820Y-115540498D01*
X101545506Y-115599463D01*
X101448815Y-115678815D01*
X101369463Y-115775506D01*
X101310498Y-115885820D01*
X101274188Y-116005518D01*
X101261928Y-116130000D01*
X71947499Y-116130000D01*
X72038663Y-105674344D01*
X86935000Y-105674344D01*
X86935000Y-106045656D01*
X87007439Y-106409834D01*
X87149534Y-106752882D01*
X87355825Y-107061618D01*
X87618382Y-107324175D01*
X87927118Y-107530466D01*
X88270166Y-107672561D01*
X88634344Y-107745000D01*
X89005656Y-107745000D01*
X89369834Y-107672561D01*
X89712882Y-107530466D01*
X90021618Y-107324175D01*
X90284175Y-107061618D01*
X90490466Y-106752882D01*
X90493731Y-106745000D01*
X91253422Y-106745000D01*
X93893470Y-109385049D01*
X93921183Y-109418817D01*
X93954951Y-109446530D01*
X93954953Y-109446532D01*
X94055940Y-109529410D01*
X94055941Y-109529411D01*
X94209687Y-109611589D01*
X94376510Y-109662195D01*
X94506523Y-109675000D01*
X94506531Y-109675000D01*
X94550000Y-109679281D01*
X94593469Y-109675000D01*
X98036531Y-109675000D01*
X98080000Y-109679281D01*
X98123469Y-109675000D01*
X98123477Y-109675000D01*
X98253490Y-109662195D01*
X98420313Y-109611589D01*
X98574059Y-109529411D01*
X98708817Y-109418817D01*
X98736534Y-109385044D01*
X99595050Y-108526529D01*
X99628817Y-108498817D01*
X99656571Y-108465000D01*
X99739410Y-108364060D01*
X99739411Y-108364059D01*
X99821589Y-108210313D01*
X99872195Y-108043490D01*
X99885000Y-107913477D01*
X99885000Y-107913467D01*
X99889281Y-107870001D01*
X99885000Y-107826535D01*
X99885000Y-107315195D01*
X100074125Y-107188825D01*
X100270000Y-106992950D01*
X100465875Y-107188825D01*
X100655001Y-107315195D01*
X100655001Y-108106521D01*
X100650719Y-108150000D01*
X100667805Y-108323490D01*
X100718412Y-108490313D01*
X100800590Y-108644059D01*
X100883468Y-108745046D01*
X100883471Y-108745049D01*
X100911184Y-108778817D01*
X100944951Y-108806529D01*
X101271983Y-109133561D01*
X101265000Y-109168665D01*
X101265000Y-109451335D01*
X101320147Y-109728574D01*
X101428320Y-109989727D01*
X101585363Y-110224759D01*
X101785241Y-110424637D01*
X102020273Y-110581680D01*
X102281426Y-110689853D01*
X102558665Y-110745000D01*
X102841335Y-110745000D01*
X102876439Y-110738017D01*
X104603470Y-112465049D01*
X104631183Y-112498817D01*
X104664951Y-112526530D01*
X104664953Y-112526532D01*
X104712973Y-112565941D01*
X104765941Y-112609411D01*
X104919687Y-112691589D01*
X105086510Y-112742195D01*
X105216523Y-112755000D01*
X105216531Y-112755000D01*
X105260000Y-112759281D01*
X105303469Y-112755000D01*
X105561546Y-112755000D01*
X105609744Y-112787205D01*
X105798102Y-112865226D01*
X105998061Y-112905000D01*
X106201939Y-112905000D01*
X106401898Y-112865226D01*
X106590256Y-112787205D01*
X106759774Y-112673937D01*
X106895000Y-112538711D01*
X106895000Y-112693421D01*
X104644951Y-114943471D01*
X104611184Y-114971183D01*
X104583471Y-115004951D01*
X104583468Y-115004954D01*
X104500590Y-115105941D01*
X104418412Y-115259687D01*
X104367805Y-115426510D01*
X104350719Y-115600000D01*
X104355001Y-115643478D01*
X104355001Y-115795478D01*
X104325241Y-115815363D01*
X104126643Y-116013961D01*
X104125812Y-116005518D01*
X104089502Y-115885820D01*
X104030537Y-115775506D01*
X103951185Y-115678815D01*
X103854494Y-115599463D01*
X103744180Y-115540498D01*
X103624482Y-115504188D01*
X103500000Y-115491928D01*
X102985750Y-115495000D01*
X102827000Y-115653750D01*
X102827000Y-116803000D01*
X102847000Y-116803000D01*
X102847000Y-117057000D01*
X102827000Y-117057000D01*
X102827000Y-118206250D01*
X102985750Y-118365000D01*
X103500000Y-118368072D01*
X103624482Y-118355812D01*
X103744180Y-118319502D01*
X103854494Y-118260537D01*
X103951185Y-118181185D01*
X104030537Y-118084494D01*
X104089502Y-117974180D01*
X104125812Y-117854482D01*
X104126643Y-117846039D01*
X104325241Y-118044637D01*
X104355001Y-118064522D01*
X104355001Y-118606521D01*
X104350719Y-118650000D01*
X104367805Y-118823490D01*
X104418412Y-118990313D01*
X104500590Y-119144059D01*
X104583468Y-119245046D01*
X104583471Y-119245049D01*
X104611184Y-119278817D01*
X104644951Y-119306529D01*
X105371983Y-120033561D01*
X105365000Y-120068665D01*
X105365000Y-120351335D01*
X105420147Y-120628574D01*
X105528320Y-120889727D01*
X105685363Y-121124759D01*
X105885241Y-121324637D01*
X106120273Y-121481680D01*
X106381426Y-121589853D01*
X106387383Y-121591038D01*
X104696464Y-123281957D01*
X104449488Y-123269783D01*
X104169870Y-123311213D01*
X103903708Y-123406397D01*
X103778486Y-123473329D01*
X103706903Y-123717298D01*
X103984013Y-123994408D01*
X103863468Y-124114954D01*
X103810225Y-124179830D01*
X103527298Y-123896903D01*
X103283329Y-123968486D01*
X103162429Y-124223996D01*
X103093700Y-124498184D01*
X103079783Y-124780512D01*
X103121213Y-125060130D01*
X103216397Y-125326292D01*
X103283329Y-125451514D01*
X103527298Y-125523097D01*
X103810225Y-125240170D01*
X103891183Y-125338817D01*
X103989830Y-125419775D01*
X103706903Y-125702702D01*
X103727215Y-125771928D01*
X103720000Y-125771928D01*
X103595518Y-125784188D01*
X103475820Y-125820498D01*
X103365506Y-125879463D01*
X103268815Y-125958815D01*
X103189463Y-126055506D01*
X103130498Y-126165820D01*
X103094188Y-126285518D01*
X103081928Y-126410000D01*
X103081928Y-128010000D01*
X103094188Y-128134482D01*
X103130498Y-128254180D01*
X103189463Y-128364494D01*
X103268815Y-128461185D01*
X103365506Y-128540537D01*
X103475820Y-128599502D01*
X103595518Y-128635812D01*
X103720000Y-128648072D01*
X105320000Y-128648072D01*
X105444482Y-128635812D01*
X105564180Y-128599502D01*
X105674494Y-128540537D01*
X105771185Y-128461185D01*
X105850537Y-128364494D01*
X105909502Y-128254180D01*
X105945812Y-128134482D01*
X105958072Y-128010000D01*
X105958072Y-126410000D01*
X105945812Y-126285518D01*
X105909502Y-126165820D01*
X105850537Y-126055506D01*
X105771185Y-125958815D01*
X105674494Y-125879463D01*
X105564180Y-125820498D01*
X105444482Y-125784188D01*
X105320000Y-125771928D01*
X105312785Y-125771928D01*
X105333097Y-125702702D01*
X105230267Y-125599872D01*
X132325000Y-125599872D01*
X132325000Y-126040128D01*
X132410890Y-126471925D01*
X132579369Y-126878669D01*
X132823962Y-127244729D01*
X133135271Y-127556038D01*
X133501331Y-127800631D01*
X133908075Y-127969110D01*
X134339872Y-128055000D01*
X134780128Y-128055000D01*
X135211925Y-127969110D01*
X135618669Y-127800631D01*
X135984729Y-127556038D01*
X136296038Y-127244729D01*
X136540631Y-126878669D01*
X136709110Y-126471925D01*
X136795000Y-126040128D01*
X136795000Y-125599872D01*
X136709110Y-125168075D01*
X136540631Y-124761331D01*
X136296038Y-124395271D01*
X135984729Y-124083962D01*
X135618669Y-123839369D01*
X135211925Y-123670890D01*
X134780128Y-123585000D01*
X134339872Y-123585000D01*
X133908075Y-123670890D01*
X133501331Y-123839369D01*
X133135271Y-124083962D01*
X132823962Y-124395271D01*
X132579369Y-124761331D01*
X132410890Y-125168075D01*
X132325000Y-125599872D01*
X105230267Y-125599872D01*
X105050170Y-125419775D01*
X105115046Y-125366532D01*
X105235592Y-125245987D01*
X105512702Y-125523097D01*
X105756671Y-125451514D01*
X105877571Y-125196004D01*
X105946300Y-124921816D01*
X105954636Y-124752702D01*
X108736903Y-124752702D01*
X108808486Y-124996671D01*
X109063996Y-125117571D01*
X109338184Y-125186300D01*
X109620512Y-125200217D01*
X109900130Y-125158787D01*
X110166292Y-125063603D01*
X110291514Y-124996671D01*
X110363097Y-124752702D01*
X109550000Y-123939605D01*
X108736903Y-124752702D01*
X105954636Y-124752702D01*
X105960217Y-124639488D01*
X105944973Y-124536605D01*
X107416579Y-123065000D01*
X108291320Y-123065000D01*
X108192429Y-123273996D01*
X108123700Y-123548184D01*
X108109783Y-123830512D01*
X108151213Y-124110130D01*
X108246397Y-124376292D01*
X108313329Y-124501514D01*
X108557298Y-124573097D01*
X109370395Y-123760000D01*
X109356253Y-123745858D01*
X109535858Y-123566253D01*
X109550000Y-123580395D01*
X109564143Y-123566253D01*
X109743748Y-123745858D01*
X109729605Y-123760000D01*
X110542702Y-124573097D01*
X110786671Y-124501514D01*
X110907571Y-124246004D01*
X110976300Y-123971816D01*
X110990217Y-123689488D01*
X110948787Y-123409870D01*
X110853603Y-123143708D01*
X110811533Y-123065000D01*
X115216531Y-123065000D01*
X115260000Y-123069281D01*
X115303469Y-123065000D01*
X115303477Y-123065000D01*
X115433490Y-123052195D01*
X115600313Y-123001589D01*
X115754059Y-122919411D01*
X115888817Y-122808817D01*
X115916534Y-122775044D01*
X116285000Y-122406578D01*
X116285000Y-122625478D01*
X116255241Y-122645363D01*
X116055363Y-122845241D01*
X115898320Y-123080273D01*
X115790147Y-123341426D01*
X115735000Y-123618665D01*
X115735000Y-123901335D01*
X115790147Y-124178574D01*
X115898320Y-124439727D01*
X116055363Y-124674759D01*
X116255241Y-124874637D01*
X116490273Y-125031680D01*
X116751426Y-125139853D01*
X117028665Y-125195000D01*
X117311335Y-125195000D01*
X117588574Y-125139853D01*
X117849727Y-125031680D01*
X118084759Y-124874637D01*
X118284637Y-124674759D01*
X118441680Y-124439727D01*
X118549853Y-124178574D01*
X118605000Y-123901335D01*
X118605000Y-123618665D01*
X118549853Y-123341426D01*
X118441680Y-123080273D01*
X118284637Y-122845241D01*
X118084759Y-122645363D01*
X118055000Y-122625479D01*
X118055000Y-121401203D01*
X118094759Y-121374637D01*
X118294637Y-121174759D01*
X118451680Y-120939727D01*
X118559853Y-120678574D01*
X118615000Y-120401335D01*
X118615000Y-120118665D01*
X118559853Y-119841426D01*
X118451680Y-119580273D01*
X118322535Y-119386993D01*
X123192612Y-119386993D01*
X123258137Y-119625860D01*
X123505116Y-119741760D01*
X123769960Y-119807250D01*
X124042492Y-119819812D01*
X124312238Y-119778965D01*
X124568832Y-119686277D01*
X124681863Y-119625860D01*
X124747388Y-119386993D01*
X123970000Y-118609605D01*
X123192612Y-119386993D01*
X118322535Y-119386993D01*
X118294637Y-119345241D01*
X118094759Y-119145363D01*
X117859727Y-118988320D01*
X117598574Y-118880147D01*
X117321335Y-118825000D01*
X117038665Y-118825000D01*
X116828403Y-118866824D01*
X116464071Y-118502492D01*
X122580188Y-118502492D01*
X122621035Y-118772238D01*
X122713723Y-119028832D01*
X122774140Y-119141863D01*
X123013007Y-119207388D01*
X123790395Y-118430000D01*
X124149605Y-118430000D01*
X124926993Y-119207388D01*
X125165860Y-119141863D01*
X125281760Y-118894884D01*
X125347250Y-118630040D01*
X125359812Y-118357508D01*
X125318965Y-118087762D01*
X125226277Y-117831168D01*
X125165860Y-117718137D01*
X124926993Y-117652612D01*
X124149605Y-118430000D01*
X123790395Y-118430000D01*
X123013007Y-117652612D01*
X122774140Y-117718137D01*
X122658240Y-117965116D01*
X122592750Y-118229960D01*
X122580188Y-118502492D01*
X116464071Y-118502492D01*
X114598017Y-116636439D01*
X114605000Y-116601335D01*
X114605000Y-116318665D01*
X119355000Y-116318665D01*
X119355000Y-116601335D01*
X119410147Y-116878574D01*
X119518320Y-117139727D01*
X119675363Y-117374759D01*
X119875241Y-117574637D01*
X120110273Y-117731680D01*
X120371426Y-117839853D01*
X120648665Y-117895000D01*
X120931335Y-117895000D01*
X121208574Y-117839853D01*
X121469727Y-117731680D01*
X121704759Y-117574637D01*
X121904637Y-117374759D01*
X121924521Y-117345000D01*
X121926531Y-117345000D01*
X121970000Y-117349281D01*
X122013469Y-117345000D01*
X122013477Y-117345000D01*
X122143490Y-117332195D01*
X122310313Y-117281589D01*
X122464059Y-117199411D01*
X122598817Y-117088817D01*
X122626534Y-117055044D01*
X122931447Y-116750132D01*
X123087114Y-116905799D01*
X123313957Y-117057371D01*
X123490655Y-117130561D01*
X123371168Y-117173723D01*
X123258137Y-117234140D01*
X123192612Y-117473007D01*
X123970000Y-118250395D01*
X124747388Y-117473007D01*
X124681863Y-117234140D01*
X124455610Y-117127966D01*
X124626043Y-117057371D01*
X124852886Y-116905799D01*
X125045799Y-116712886D01*
X125197371Y-116486043D01*
X125301775Y-116233989D01*
X125355000Y-115966411D01*
X125355000Y-115693589D01*
X125301775Y-115426011D01*
X125197371Y-115173957D01*
X125045799Y-114947114D01*
X124852886Y-114754201D01*
X124649155Y-114618072D01*
X124720000Y-114618072D01*
X124844482Y-114605812D01*
X124964180Y-114569502D01*
X125074494Y-114510537D01*
X125171185Y-114431185D01*
X125250537Y-114334494D01*
X125309502Y-114224180D01*
X125345812Y-114104482D01*
X125358072Y-113980000D01*
X125358072Y-112480000D01*
X125345812Y-112355518D01*
X125309502Y-112235820D01*
X125250537Y-112125506D01*
X125171185Y-112028815D01*
X125074494Y-111949463D01*
X124964180Y-111890498D01*
X124844482Y-111854188D01*
X124720000Y-111841928D01*
X123833507Y-111841928D01*
X122655454Y-110663876D01*
X122711680Y-110579727D01*
X122819853Y-110318574D01*
X122875000Y-110041335D01*
X122875000Y-109758665D01*
X127625000Y-109758665D01*
X127625000Y-110041335D01*
X127680147Y-110318574D01*
X127788320Y-110579727D01*
X127945363Y-110814759D01*
X128145241Y-111014637D01*
X128380273Y-111171680D01*
X128641426Y-111279853D01*
X128918665Y-111335000D01*
X129201335Y-111335000D01*
X129478574Y-111279853D01*
X129739727Y-111171680D01*
X129974759Y-111014637D01*
X130174637Y-110814759D01*
X130331680Y-110579727D01*
X130439853Y-110318574D01*
X130495000Y-110041335D01*
X130495000Y-109758665D01*
X130439853Y-109481426D01*
X130331680Y-109220273D01*
X130174637Y-108985241D01*
X129974759Y-108785363D01*
X129739727Y-108628320D01*
X129478574Y-108520147D01*
X129201335Y-108465000D01*
X128918665Y-108465000D01*
X128641426Y-108520147D01*
X128380273Y-108628320D01*
X128145241Y-108785363D01*
X127945363Y-108985241D01*
X127788320Y-109220273D01*
X127680147Y-109481426D01*
X127625000Y-109758665D01*
X122875000Y-109758665D01*
X122819853Y-109481426D01*
X122711680Y-109220273D01*
X122554637Y-108985241D01*
X122354759Y-108785363D01*
X122325000Y-108765479D01*
X122325000Y-107447840D01*
X122344759Y-107434637D01*
X122544637Y-107234759D01*
X122701680Y-106999727D01*
X122809853Y-106738574D01*
X122865000Y-106461335D01*
X122865000Y-106178665D01*
X127615000Y-106178665D01*
X127615000Y-106461335D01*
X127670147Y-106738574D01*
X127778320Y-106999727D01*
X127935363Y-107234759D01*
X128135241Y-107434637D01*
X128370273Y-107591680D01*
X128631426Y-107699853D01*
X128908665Y-107755000D01*
X129191335Y-107755000D01*
X129468574Y-107699853D01*
X129729727Y-107591680D01*
X129964759Y-107434637D01*
X130164637Y-107234759D01*
X130321680Y-106999727D01*
X130429853Y-106738574D01*
X130485000Y-106461335D01*
X130485000Y-106178665D01*
X130429853Y-105901426D01*
X130321680Y-105640273D01*
X130164637Y-105405241D01*
X129964759Y-105205363D01*
X129729727Y-105048320D01*
X129468574Y-104940147D01*
X129191335Y-104885000D01*
X128908665Y-104885000D01*
X128631426Y-104940147D01*
X128370273Y-105048320D01*
X128135241Y-105205363D01*
X127935363Y-105405241D01*
X127778320Y-105640273D01*
X127670147Y-105901426D01*
X127615000Y-106178665D01*
X122865000Y-106178665D01*
X122809853Y-105901426D01*
X122701680Y-105640273D01*
X122544637Y-105405241D01*
X122344759Y-105205363D01*
X122109727Y-105048320D01*
X121848574Y-104940147D01*
X121571335Y-104885000D01*
X121288665Y-104885000D01*
X121011426Y-104940147D01*
X120750273Y-105048320D01*
X120515241Y-105205363D01*
X120315363Y-105405241D01*
X120158320Y-105640273D01*
X120050147Y-105901426D01*
X119995000Y-106178665D01*
X119995000Y-106461335D01*
X120050147Y-106738574D01*
X120158320Y-106999727D01*
X120315363Y-107234759D01*
X120515241Y-107434637D01*
X120555001Y-107461204D01*
X120555000Y-108765479D01*
X120525241Y-108785363D01*
X120325363Y-108985241D01*
X120168320Y-109220273D01*
X120060147Y-109481426D01*
X120005000Y-109758665D01*
X120005000Y-110041335D01*
X120060147Y-110318574D01*
X120168320Y-110579727D01*
X120325363Y-110814759D01*
X120525241Y-111014637D01*
X120648826Y-111097213D01*
X120700590Y-111194059D01*
X120783468Y-111295046D01*
X120783471Y-111295049D01*
X120811184Y-111328817D01*
X120844951Y-111356529D01*
X122581928Y-113093507D01*
X122581928Y-113980000D01*
X122594188Y-114104482D01*
X122630498Y-114224180D01*
X122689463Y-114334494D01*
X122768815Y-114431185D01*
X122865506Y-114510537D01*
X122975820Y-114569502D01*
X123095518Y-114605812D01*
X123220000Y-114618072D01*
X123290845Y-114618072D01*
X123087114Y-114754201D01*
X122896315Y-114945000D01*
X122643469Y-114945000D01*
X122600000Y-114940719D01*
X122556531Y-114945000D01*
X122556523Y-114945000D01*
X122426510Y-114957805D01*
X122259686Y-115008411D01*
X122105941Y-115090589D01*
X122004953Y-115173468D01*
X122004951Y-115173470D01*
X121971183Y-115201183D01*
X121943470Y-115234951D01*
X121768909Y-115409513D01*
X121704759Y-115345363D01*
X121469727Y-115188320D01*
X121208574Y-115080147D01*
X120931335Y-115025000D01*
X120648665Y-115025000D01*
X120371426Y-115080147D01*
X120110273Y-115188320D01*
X119875241Y-115345363D01*
X119675363Y-115545241D01*
X119518320Y-115780273D01*
X119410147Y-116041426D01*
X119355000Y-116318665D01*
X114605000Y-116318665D01*
X114549853Y-116041426D01*
X114443638Y-115785000D01*
X115546531Y-115785000D01*
X115590000Y-115789281D01*
X115633469Y-115785000D01*
X115633477Y-115785000D01*
X115763490Y-115772195D01*
X115930313Y-115721589D01*
X116084059Y-115639411D01*
X116218817Y-115528817D01*
X116246534Y-115495044D01*
X116913561Y-114828017D01*
X116948665Y-114835000D01*
X117231335Y-114835000D01*
X117508574Y-114779853D01*
X117769727Y-114671680D01*
X118004759Y-114514637D01*
X118204637Y-114314759D01*
X118361680Y-114079727D01*
X118469853Y-113818574D01*
X118525000Y-113541335D01*
X118525000Y-113258665D01*
X118469853Y-112981426D01*
X118361680Y-112720273D01*
X118204637Y-112485241D01*
X118004759Y-112285363D01*
X117769727Y-112128320D01*
X117508574Y-112020147D01*
X117231335Y-111965000D01*
X116948665Y-111965000D01*
X116671426Y-112020147D01*
X116410273Y-112128320D01*
X116175241Y-112285363D01*
X115975363Y-112485241D01*
X115818320Y-112720273D01*
X115710147Y-112981426D01*
X115655000Y-113258665D01*
X115655000Y-113541335D01*
X115661983Y-113576439D01*
X115223422Y-114015000D01*
X114874349Y-114015000D01*
X114959853Y-113808574D01*
X115015000Y-113531335D01*
X115015000Y-113248665D01*
X114959853Y-112971426D01*
X114851680Y-112710273D01*
X114694637Y-112475241D01*
X114494759Y-112275363D01*
X114259727Y-112118320D01*
X113998574Y-112010147D01*
X113721335Y-111955000D01*
X113438665Y-111955000D01*
X113161426Y-112010147D01*
X112900273Y-112118320D01*
X112665241Y-112275363D01*
X112465363Y-112475241D01*
X112445479Y-112505000D01*
X108665000Y-112505000D01*
X108665000Y-110444521D01*
X108694759Y-110424637D01*
X108894637Y-110224759D01*
X109050000Y-109992241D01*
X109205363Y-110224759D01*
X109405241Y-110424637D01*
X109640273Y-110581680D01*
X109901426Y-110689853D01*
X110178665Y-110745000D01*
X110461335Y-110745000D01*
X110738574Y-110689853D01*
X110999727Y-110581680D01*
X111234759Y-110424637D01*
X111434637Y-110224759D01*
X111591680Y-109989727D01*
X111699853Y-109728574D01*
X111755000Y-109451335D01*
X111755000Y-109168665D01*
X111699853Y-108891426D01*
X111591680Y-108630273D01*
X111434637Y-108395241D01*
X111234759Y-108195363D01*
X110999727Y-108038320D01*
X110738574Y-107930147D01*
X110461335Y-107875000D01*
X110178665Y-107875000D01*
X109901426Y-107930147D01*
X109640273Y-108038320D01*
X109405241Y-108195363D01*
X109205363Y-108395241D01*
X109050000Y-108627759D01*
X108894637Y-108395241D01*
X108694759Y-108195363D01*
X108459727Y-108038320D01*
X108198574Y-107930147D01*
X107921335Y-107875000D01*
X107638665Y-107875000D01*
X107361426Y-107930147D01*
X107100273Y-108038320D01*
X106865241Y-108195363D01*
X106665363Y-108395241D01*
X106510000Y-108627759D01*
X106354637Y-108395241D01*
X106154759Y-108195363D01*
X106125000Y-108175479D01*
X106125000Y-108096578D01*
X107566579Y-106655000D01*
X112445479Y-106655000D01*
X112465363Y-106684759D01*
X112665241Y-106884637D01*
X112900273Y-107041680D01*
X113161426Y-107149853D01*
X113438665Y-107205000D01*
X113721335Y-107205000D01*
X113998574Y-107149853D01*
X114259727Y-107041680D01*
X114494759Y-106884637D01*
X114694637Y-106684759D01*
X114707840Y-106665000D01*
X115955479Y-106665000D01*
X115975363Y-106694759D01*
X116175241Y-106894637D01*
X116410273Y-107051680D01*
X116671426Y-107159853D01*
X116948665Y-107215000D01*
X117231335Y-107215000D01*
X117508574Y-107159853D01*
X117769727Y-107051680D01*
X118004759Y-106894637D01*
X118204637Y-106694759D01*
X118361680Y-106459727D01*
X118469853Y-106198574D01*
X118525000Y-105921335D01*
X118525000Y-105638665D01*
X118469853Y-105361426D01*
X118361680Y-105100273D01*
X118204637Y-104865241D01*
X118004759Y-104665363D01*
X117769727Y-104508320D01*
X117508574Y-104400147D01*
X117231335Y-104345000D01*
X116948665Y-104345000D01*
X116671426Y-104400147D01*
X116410273Y-104508320D01*
X116175241Y-104665363D01*
X115975363Y-104865241D01*
X115955479Y-104895000D01*
X114721203Y-104895000D01*
X114694637Y-104855241D01*
X114494759Y-104655363D01*
X114259727Y-104498320D01*
X113998574Y-104390147D01*
X113721335Y-104335000D01*
X113438665Y-104335000D01*
X113161426Y-104390147D01*
X112900273Y-104498320D01*
X112665241Y-104655363D01*
X112465363Y-104855241D01*
X112445479Y-104885000D01*
X107243469Y-104885000D01*
X107200000Y-104880719D01*
X107156531Y-104885000D01*
X107156523Y-104885000D01*
X107026510Y-104897805D01*
X106859686Y-104948411D01*
X106705941Y-105030589D01*
X106604953Y-105113468D01*
X106604951Y-105113470D01*
X106571183Y-105141183D01*
X106543470Y-105174951D01*
X104644951Y-107073471D01*
X104611184Y-107101183D01*
X104583471Y-107134951D01*
X104583468Y-107134954D01*
X104500590Y-107235941D01*
X104418412Y-107389687D01*
X104367805Y-107556510D01*
X104350719Y-107730000D01*
X104355001Y-107773479D01*
X104355001Y-108175478D01*
X104325241Y-108195363D01*
X104125363Y-108395241D01*
X103970000Y-108627759D01*
X103814637Y-108395241D01*
X103614759Y-108195363D01*
X103379727Y-108038320D01*
X103118574Y-107930147D01*
X102841335Y-107875000D01*
X102558665Y-107875000D01*
X102523561Y-107881983D01*
X102425000Y-107783422D01*
X102425000Y-107315195D01*
X102614125Y-107188825D01*
X102848825Y-106954125D01*
X103033228Y-106678147D01*
X103160246Y-106371496D01*
X103225000Y-106045958D01*
X103225000Y-105714042D01*
X103160246Y-105388504D01*
X103033228Y-105081853D01*
X102848825Y-104805875D01*
X102614125Y-104571175D01*
X102338147Y-104386772D01*
X102031496Y-104259754D01*
X101705958Y-104195000D01*
X101374042Y-104195000D01*
X101048504Y-104259754D01*
X100741853Y-104386772D01*
X100465875Y-104571175D01*
X100270000Y-104767050D01*
X100074125Y-104571175D01*
X99798147Y-104386772D01*
X99491496Y-104259754D01*
X99165958Y-104195000D01*
X98834042Y-104195000D01*
X98508504Y-104259754D01*
X98201853Y-104386772D01*
X97925875Y-104571175D01*
X97730000Y-104767050D01*
X97534125Y-104571175D01*
X97258147Y-104386772D01*
X96951496Y-104259754D01*
X96625958Y-104195000D01*
X96294042Y-104195000D01*
X95968504Y-104259754D01*
X95661853Y-104386772D01*
X95385875Y-104571175D01*
X95151175Y-104805875D01*
X94966772Y-105081853D01*
X94839754Y-105388504D01*
X94775000Y-105714042D01*
X94775000Y-106045958D01*
X94839754Y-106371496D01*
X94966772Y-106678147D01*
X95151175Y-106954125D01*
X95385875Y-107188825D01*
X95661853Y-107373228D01*
X95968504Y-107500246D01*
X96294042Y-107565000D01*
X96625958Y-107565000D01*
X96951496Y-107500246D01*
X97258147Y-107373228D01*
X97534125Y-107188825D01*
X97730000Y-106992950D01*
X97925875Y-107188825D01*
X98115000Y-107315195D01*
X98115000Y-107503421D01*
X97713422Y-107905000D01*
X94916579Y-107905000D01*
X92276534Y-105264956D01*
X92248817Y-105231183D01*
X92114059Y-105120589D01*
X91960313Y-105038411D01*
X91793490Y-104987805D01*
X91663477Y-104975000D01*
X91663469Y-104975000D01*
X91620000Y-104970719D01*
X91576531Y-104975000D01*
X90493731Y-104975000D01*
X90490466Y-104967118D01*
X90284175Y-104658382D01*
X90021618Y-104395825D01*
X89712882Y-104189534D01*
X89369834Y-104047439D01*
X89005656Y-103975000D01*
X88634344Y-103975000D01*
X88270166Y-104047439D01*
X87927118Y-104189534D01*
X87618382Y-104395825D01*
X87355825Y-104658382D01*
X87149534Y-104967118D01*
X87007439Y-105310166D01*
X86935000Y-105674344D01*
X72038663Y-105674344D01*
X72085898Y-100256904D01*
X137604341Y-100207096D01*
X137911659Y-129184232D01*
%TD*%
M02*
