M48
; DRILL file {KiCad (5.1.6)-1} date 10/24/21 20:03:49
; FORMAT={-:-/ absolute / inch / decimal}
; #@! TF.CreationDate,2021-10-24T20:03:49+02:00
; #@! TF.GenerationSoftware,Kicad,Pcbnew,(5.1.6)-1
FMAT,2
INCH
T1C0.0157
T2C0.0315
T3C0.0354
T4C0.0394
T5C0.0433
T6C0.0461
T7C0.0591
T8C0.1260
%
G90
G05
T1
X4.1772Y-4.4043
X4.2949Y-4.522
T2
X4.115Y-4.9098
X4.115Y-5.0083
X4.0079Y-4.7327
X4.2047Y-4.7327
X4.4555Y-4.585
X4.7555Y-4.585
X4.7811Y-4.3268
X5.0811Y-4.3268
X4.3134Y-4.7346
X4.6134Y-4.7346
X4.313Y-4.8724
X4.613Y-4.8724
X4.7807Y-4.1858
X5.0807Y-4.1858
X4.6098Y-4.1646
X4.6098Y-4.4646
X4.4717Y-4.1642
X4.4717Y-4.4642
T3
X4.5228Y-2.3465
X4.5228Y-2.4465
X3.7331Y-2.348
X3.7331Y-2.448
X4.8807Y-4.4579
X4.8807Y-4.5602
X4.8807Y-4.6626
T4
X4.0433Y-4.3035
X4.0433Y-4.6035
X4.1433Y-4.3035
X4.1433Y-4.6035
X4.2433Y-4.3035
X4.2433Y-4.6035
X4.3433Y-4.3035
X4.3433Y-4.6035
T5
X3.7976Y-4.1685
X3.8976Y-4.1685
X3.9976Y-4.1685
T6
X3.4969Y-4.9551
T7
X3.4969Y-4.1677
T8
X5.2913Y-1.4795
X2.9563Y-4.9776
X5.2976Y-4.9535
X2.9799Y-1.4626
T0
M30
